# xmcd
#
# Track frame offsets:
#	150
#	24209
#	48419
#	69637
#	99086
#	109151
#	133407
#	154347
#	189269
#
# Disc length: 2803 seconds
#
# Revision: 0
# Processed by: cddbd v1.5.1PL0 Copyright (c) Steve Scherf et al.
# Submitted via: audiograbber 1.83.01
#
DISCID=720af109
DTITLE=John Mayall - Back To The Roots (2)
DYEAR=1970
DGENRE=
TTITLE0=10 - Dream With Me
TTITLE1=11 - Full Speed Ahead
TTITLE2=12 - Mr. Censor Man
TTITLE3=13 - Force Of Nature
TTITLE4=14 - Boogie Albert
TTITLE5=15 - Goodbye December
TTITLE6=16 - Unanswered Questions
TTITLE7=17 - Devil's Tricks
TTITLE8=18 - Travelling
EXTD=
EXTT0=
EXTT1=
EXTT2=
EXTT3=
EXTT4=
EXTT5=
EXTT6=
EXTT7=
EXTT8=
PLAYORDER=
